<?xml version="1.0" encoding="UTF-8"?>
<!DOCTYPE svg PUBLIC "-//W3C//DTD SVG 1.1//EN" "http://www.w3.org/Graphics/SVG/1.1/DTD/svg11.dtd">
<!-- Creator: CorelDRAW (Versão OEM) -->
<svg xmlns="http://www.w3.org/2000/svg" xml:space="preserve" width="297mm" height="210mm" version="1.1" style="shape-rendering:geometricPrecision; text-rendering:geometricPrecision; image-rendering:optimizeQuality; fill-rule:evenodd; clip-rule:evenodd"
viewBox="4484 2243 8600 8600"
 xmlns:xlink="http://www.w3.org/1999/xlink"
 xmlns:xodm="http://www.corel.com/coreldraw/odm/2003">
 <defs>
  <style type="text/css">
   <![CDATA[
    .str1 {stroke:#373435;stroke-width:20;stroke-miterlimit:22.9256}
    .str0 {stroke:#373435;stroke-width:20;stroke-miterlimit:22.9256}
    .str2 {stroke:#ED3237;stroke-width:20;stroke-miterlimit:22.9256}
    .str3 {stroke:#007D6F;stroke-width:20;stroke-miterlimit:22.9256}
    .str4 {stroke:#27589D;stroke-width:20;stroke-miterlimit:22.9256}
    .fil0 {fill:#373435}
    .fil2 {fill:#ED3237}
    .fil3 {fill:#007D6F}
    .fil1 {fill:#27589D}
    .fil4 {fill:#373435;fill-rule:nonzero}
   ]]>
  </style>
 </defs>
 <g id="Camada_x0020_1">
  <metadata id="CorelCorpID_0Corel-Layer"/>
  <g id="_879941968">
   <g>
    <path class="fil0 str0" d="M20368.8 10255.19c2.58,-72.72 17.91,-104.74 59.57,-135.79 119.31,-88.92 279.81,52.69 190.05,186.12 -6.13,9.11 -12.99,18.61 -21.19,25.32 -4.96,4.07 -8.88,6.14 -13.78,9.71l-13.21 11.48c14.69,5.72 42.97,11.62 63.56,11.62 0,30.17 12.86,100.41 19.33,127.88 21.71,92.13 34.51,144.03 68.65,229.64 15.36,38.49 30.33,68.92 47.6,103.48 45.74,91.48 58.2,104.5 113.11,185.18 22.3,32.75 43.4,54.42 67.81,83.27 7.12,8.43 7.37,10.7 15.61,19.26l56.42 59.79c16.43,13.69 23.63,20 38.53,35.08l39.45 34.15c191.72,150.68 366.55,240.73 621.82,276.92l139.64 11.62c73.34,0.4 195.98,-16.08 265.04,-33.52 43.66,-11.03 72.98,-20.72 113.19,-34.02 20.72,-6.85 34.27,-12.04 53.14,-20.46 212.83,-94.96 279.24,-148.94 441.33,-310.21l100.87 -123.81 112.5 -185.8c61.9,-113.88 109.54,-265.36 130.38,-392.59 3.3,-20.15 7.08,-46.38 11.62,-65.86 62.9,-5.23 157.92,-45.77 208.45,-78.22 62.52,-40.14 106.99,-80.82 147.23,-143.3 31.32,-48.62 71.96,-145.81 60.04,-225.19 -12.28,-81.79 -38.54,-139.21 -113.51,-177.03 -44.14,-22.27 -66.73,-18.98 -115.86,-3.43 -70.08,22.19 -132.87,88.56 -187.32,138.55 -21.39,19.64 -12.65,22.45 -26.65,-60.96 -6.46,-38.42 -16.62,-81.89 -25.79,-117.55 -9.95,-38.71 -20.52,-79.06 -31.34,-115.86l-53.04 -163.9c-4.36,-10.81 -5.79,-14.91 -9.94,-24.93 -4.1,-9.91 -8.38,-15.97 -11.1,-27.64 -16.79,0.38 -15.86,3.45 -34.74,4 -12.56,0.37 -26.17,-0.12 -38.87,-0.12 -29.64,-0.02 -49.88,2.61 -73.58,3.89l-301.98 -7.97c-46.39,-3.81 -95.03,-8.02 -143.24,-11.71 -263.25,-20.15 -706.36,-114.71 -953.23,-212.81l-163.86 -68.57c-78.32,-33.44 -179.49,-90.82 -255.85,-131.54 -10.56,-5.64 -15.47,-7.69 -25.11,-13.63 -8.99,-5.53 -17.67,-12.07 -27.83,-14.78l-81.85 228.06c-25.71,77.19 -49.09,157.16 -72.66,237.25 -35.3,120.01 -61.82,253.82 -82.94,381.93 -4.57,27.74 -10.94,115.64 -22.1,136.72 -15.2,-4.05 -14.08,-12.22 -39.71,-37.77 -64.48,-64.27 -172.53,-153.33 -272.38,-119.36 -37.99,12.93 -72.96,39.59 -92.14,70.57 -94.13,152.01 1.91,339.63 119.86,446.84z"/>
    <path class="fil0 str0" d="M22964.91 7845.63c1.8,44.01 17.44,59.78 -5.77,109.23 -41.18,87.77 -117.68,90.66 -135.3,36.14 -14.16,-43.79 33.86,-49.32 51.61,-69.29 52.9,-59.51 -3.31,-148.1 -79.31,-121.61 -48.62,16.95 -88.3,103.53 3.32,147.33 -15.55,-37.76 -5.33,-66.63 24.53,-96.48l6.3 -5.75c31.62,48.87 6.78,71.98 -9.28,107.29 -23.44,51.53 23.75,63.94 44.06,82.65 -212.58,42.79 -230.69,-280.85 -7.67,-270.23 -0.68,-0.67 -1.76,-2.65 -2.08,-1.98l-19.56 -15.75c-50.54,-34.54 -123.58,-80.37 -178.45,-108.21 -68.65,-34.85 -155.77,-71.46 -229.41,-95.99 -363.66,-121.19 -759.71,-117.64 -1124.41,3.87 -113.99,37.98 -233.25,92.97 -334.34,153.77 -185.94,111.83 -338.41,256.65 -465.43,433.32l-64.35 98.35c-30.84,51.16 -59.26,104.68 -82.86,161.2 -17.43,41.76 -30.71,76.13 -45.71,120.86 -56.42,168.19 -75.94,367.45 -52.46,578.37 12.97,116.53 61.08,274.48 112.03,376.07 18.41,36.71 34.17,85.97 61.99,104.59 8.57,-17.85 14.65,-45.6 21.04,-68.05l79.69 -280.58c6.58,-23.75 13.43,-44.53 20.18,-68.93 30.78,-111.33 74.98,-224.38 118.76,-330.6 32.61,-79.15 31.75,-97 79.28,-191.9 20.76,-41.46 39.64,-81.6 60.69,-121.38 11.05,2.95 92.93,60.64 110.02,72.05 38.44,25.66 72.57,45.26 113.03,69.04 114.18,67.13 244.84,132.31 368.53,181.56 373.18,148.58 630.73,190.65 1040.42,241.84l250.7 20.47c24.54,1.19 60.23,7.18 85.11,7.87 58.99,1.62 114.9,3.82 178.32,3.74l178.19 7.75c4.57,19.57 13.13,40.32 18.92,58.57l54.2 182.1c14.92,46.65 54.61,204.65 89.59,228.08l90.21 -211.96c100.23,-250.43 108.25,-535.45 45.38,-787.52 -38.67,-155.08 -131.02,-343.66 -218.01,-459.91l-100.57 -127.99 -112.57 -115.99c-15.13,-12.65 -26.93,-20.82 -38.56,-36.01z"/>
    <path class="fil0 str0" d="M22260.83 13203.19c-16.48,4.38 -66.09,29.11 -94.09,-23.22 -28.17,-52.63 20.78,-85.96 30.47,-96.85 -0.5,-16.12 -37.4,-82.88 -47.12,-106.2 -4.64,-11.15 -20.55,-47.95 -19.8,-56.04 1.45,-15.57 56.35,-75.48 69.52,-88.6l325.49 -348.57c9.19,-9.55 10.54,-13.96 19.24,-23.36 14.58,-15.77 23.34,-22.81 37.24,-40.24l113.91 -122.4c14.8,-14.62 21.96,-26.13 36.77,-40.71l75.73 -83.1c12.73,-15.23 27.6,-25.8 40.32,-41.02 57.3,-68.55 40.33,-30.3 39.78,-111.1 -0.37,-55.66 -24.8,-281.88 -31.18,-363.95l-19.07 -221.11c-26.43,13.98 -46.63,31.23 -72.07,48.02 -84.61,55.82 -119.65,90 -222.52,149.37 -239.48,138.23 -514.11,199.25 -805.95,170.99 -104.52,-10.12 -211.08,-34.03 -306.17,-65.72 -16.1,-5.37 -31.65,-10.55 -46.52,-15.47 -17.66,-5.85 -28.97,-12.33 -47.23,-16.02 2.56,16.72 -1.41,17.24 -11.34,26.09 -26.92,23.97 -48.45,52.97 -58.62,37.55 -6.5,-18.46 29.99,-35.23 39.52,-55.73 -54.65,-16.47 -70.11,46.61 -35.68,67.23 17.75,10.62 42.44,4.37 51.14,-10.03 15.25,-25.24 -5.09,-30.87 23.68,-49.06 24.56,61.38 -38.87,112.8 -91.81,76.2 -45.18,-31.23 -27.35,-106.36 37.89,-111.3 -0.69,-0.64 -1.83,-2.49 -2.18,-1.79 -0.34,0.69 -1.73,-1.42 -2.21,-1.75 -6.4,-4.38 -1.5,-1.39 -7.16,-4.6l-96.92 -50.28c-56.52,-30.57 -217.5,-139.03 -274.46,-182.73 -46.06,-35.33 -17.91,7.01 -37.69,141.75 -3.54,24.12 -4.39,51.63 -5.58,75.77 -1.16,23.59 -6.6,53.21 -7.65,77.57 -1.06,24.72 -4.82,51.89 -7.16,74.2l-20.75 231.34c-3.25,30.05 0.19,36.24 16.72,58.12l56.71 67.26c7.31,8.29 13.94,13.07 21.25,21.36l259.19 283.16c32.45,40.68 88.76,91.48 120.45,127.47 8.36,9.5 9.82,13.69 19.32,23.29 15,15.16 27.56,27.37 42.75,42.48l40.62 44.61c52.82,52.73 111.33,120.19 162.74,170.41 18.39,17.97 28.01,26.32 14.96,59.57l-76.01 171.93c-9.25,18.49 -19.75,37.1 -28.24,57 -17.36,40.66 -34.57,73.01 -51.46,115.11 -10.12,25.22 -16.88,32.38 -7.85,62.6l99.66 322.64c27.46,82.41 53.92,166.16 82.32,250.83l212.16 620.73c7.22,19.32 15.65,41.43 23.14,62.09 6.17,17.02 15.2,46.62 22.79,62.43 12.4,-9.09 7.42,-8.56 17.91,-40.2 5.82,-17.57 10.96,-31.08 16.37,-45.61 11.63,-31.24 21.62,-58.61 33.81,-90.15 20.85,-53.92 33.33,-119.45 59.16,-188.77 22.55,-60.52 46.44,-115.69 66.96,-177.09 22.65,-67.74 25.49,-109.85 57.59,-190.34l32.42 -87.68c10.91,-32.34 22.36,-57.55 31.13,-92.82 8.4,-33.77 16,-66.48 26.01,-97.96 28.95,-91.14 67.56,-181.97 95.04,-276.85 14.73,-50.83 19.2,-49.25 -0.31,-97.72l-28.06 -65.13c-3.62,-7.74 -4.64,-13.98 -9.02,-17.9z"/>
    <path class="fil0 str0" d="M22818.67 14746.37c34.77,8.76 101.27,-3.47 140.91,78.71 13.12,27.18 15.67,64.13 6.93,94.87 -9.97,35.02 -26.96,45.26 -38.06,69.12 25.44,56.5 142.75,154.82 198.51,191.44 117.28,77.02 313.48,111.14 453.81,86.43 144.13,-25.38 314.08,-106.56 406.23,-225.22 36.42,-46.88 63.05,-93.43 92.92,-143.38 95.51,-159.74 86.34,-422.48 6.8,-580.75 -18.99,-37.79 -34.66,-63.61 -57.82,-97.13 -10.73,-15.54 -21.7,-29.57 -33.72,-43.76 -34.07,-40.29 -44.94,-46.18 -79.19,-79.64 -62.11,-60.67 -174.95,-112.81 -262.02,-136.99 -41.36,-11.48 -29.53,-18.01 -29.53,-129.29l0 -952.97c0,-112.3 -2.23,-204.33 -15.7,-301.97 -12.63,-91.53 -35.83,-176.4 -62.23,-255.42 -38.29,-114.57 -93.97,-214.63 -156.11,-316.51l-32.12 -45.36c-73.46,-98.2 -158.73,-184.79 -255.27,-260.64 -10.9,-8.57 -15.03,-15 -17.17,5.44 -4.36,41.67 0.13,114.42 0.13,159.5 0,125.46 -16.86,122.11 41.41,191.01l67.08 91.75c5.83,8.28 8.97,14.89 14.72,24.03 6.54,10.38 10.49,15.62 16.25,26.36 18.45,34.33 36.66,68.76 54.29,104.54 51.71,104.98 111.6,326.87 112.41,441.55 0.22,31.37 3.93,46.59 3.77,77.58 -0.54,105.85 3.85,202 3.85,309.94 0,259.18 3.44,537.81 0.35,794.5 -0.47,39.81 -23.07,22.62 -112.74,46.09 -159.95,41.86 -274.94,141.4 -368.58,266.73 -73.88,98.9 -111.75,239.41 -111.73,364.75 0.01,93.12 3.23,71.4 11.62,144.69z"/>
    <path class="fil0 str0" d="M20110.83 12986.27l0 650.82c-31.56,0.7 -144.18,42.27 -178.05,62.14 -84.19,49.37 -165.28,100.54 -227.1,179.65 -116.6,149.22 -164.31,274.74 -164.31,482.62l0 786.4c0,184.44 125.66,379.71 281.52,466.13 52.35,29.03 207.47,91.71 264.69,91.71 107.77,0 164.31,-147.86 91.25,-226.84 -58.23,-62.94 -136.35,-24.16 -181.51,-23.02 -22.86,0.58 -62.02,-22.05 -79.43,-33.7 -95.25,-63.71 -164.15,-170.75 -163.49,-297.5 0.41,-78.65 -3.84,-147.62 -3.84,-228.58l0 -491.99c0,-123.98 22.71,-234.74 90.15,-324.34 35.75,-47.5 40.87,-55.67 83.01,-91.32 47.8,-40.43 45.31,-39.34 102.05,-72.28 15.31,-8.88 29.27,-15.13 47.41,-22.31 46,-18.22 114.72,-40.1 169.24,-39.96 11.42,0.03 23.08,0.84 34.42,-0.45 111.54,-12.64 252.98,33.03 343.7,99.05 31.4,22.85 49.19,36.24 76.21,63.26 73.59,73.61 128.21,170.12 141.35,277.03 5.43,44.19 1.01,650.32 1.01,731.15 0,107.37 13.61,181.62 -41.34,280.19 -29.22,52.42 -68.13,94.21 -119.06,124.99 -43.37,26.2 -59.61,29.35 -103.72,17.77 -111.92,-29.38 -181.37,57.08 -181.37,127.14 0,71.25 55.92,131.71 135.58,131.71 28.93,0 75.11,-21.86 104.1,-31.49 129.75,-43.08 165.03,-53.7 262.96,-151.55 86.21,-86.16 159.79,-222.87 159.79,-394.17l-3.87 -399.01c0,-143.76 17.14,-402.83 -12.55,-541.42 -12.78,-59.68 -22.31,-85.59 -45,-140.94 -25.41,-61.98 -64.17,-118.45 -106.3,-168.75 -7.79,-9.31 -15.12,-14.47 -23.04,-23.45 -98.33,-111.58 -230.58,-183.75 -376.38,-220.2 -43.73,-10.93 -110.09,-24.79 -161.15,-24.79 0,-25.78 3.97,-33.59 4.01,-57.98l-0.13 -685.81c0,-224.86 31.63,-395.99 122.68,-593.98 41.59,-90.44 96.16,-174 163.27,-247.36 11.06,-12.09 11.74,-22.42 12.34,-49.65l3.9 -123.99c0.13,-27.17 -3.77,-38.68 -4.06,-61.8 -0.25,-20.52 0.03,-41.74 0.28,-62.29 0.41,-34.76 3.59,-41.63 -19.39,-23.44 -76.2,60.32 -191.89,184 -250.27,265.41 -40.97,57.13 -54.43,81.24 -87.04,137.65 -78.37,135.57 -145.27,348.52 -158.36,519.56 -2.71,35.41 -1.21,87.13 -6.41,121.44 -8.09,53.49 4.46,141.18 -0.68,177.73 -2.56,18.23 2.93,37.28 2.93,60.81z"/>
    <path class="fil0 str0" d="M18921.54 14208.12c-17.46,14.89 -32.72,34.16 -67.04,26.55 -25.05,-5.56 -44.93,-25.15 -48.17,-52.23 -7.44,-62.11 70.41,-94.68 109.69,-44.21 -4.64,11 -52.41,58.82 -64.21,63.98l-11.96 -10.85c7.21,-17.98 32.49,-32.58 38.2,-43.51l1.49 -6.14c0.05,-0.3 0.12,-1.38 -0.06,-2.04 -45.41,-17.06 -65.93,49.1 -32.25,67.77 18.97,10.52 41.82,3.27 50.55,-9.21 10.13,-14.49 1.83,-25.46 13.01,-40.89l10.75 -9.77c0,-137.09 -6.29,-515.05 9.87,-624.59 7.39,-50.12 13.94,-87.65 26.59,-132.23 18.07,-63.74 42.95,-108.47 74.66,-161.65 10.89,-18.25 19.52,-33.36 31.61,-49.74 167.58,-226.99 420.5,-358.23 698.23,-413.58 74.49,-14.84 207.69,-35.18 282.47,-35.18l9.37 -203.69c2.98,-20.38 6.12,-47.27 6.12,-67.48 -41.74,0 -84.88,8.17 -124.07,11.51 -172.76,14.71 -395.75,71.75 -552.25,137.3 -66.07,27.68 -122.42,59.15 -181.05,93.99l-228.28 182.35 -50.33 54.27c-6.99,7.92 -8.19,11.04 -15.56,19.31 -34.72,38.97 -87.94,114.05 -114.02,161.02 -5.05,9.1 -8.16,13.25 -13.09,21.78 -4.86,8.41 -6.95,14.39 -11.63,23.23l-22.92 46.81c-55.77,112.17 -70.32,206.58 -87.53,326.97 -5.84,40.83 -5.48,85.73 -5.48,130.11l0 1518.56c0,101.1 3.87,172.09 3.87,267.3l193.74 -3.93c28.03,-0.16 38.62,3.93 65.81,3.93 0,-30.61 4.08,-45.69 3.96,-73.52l-0.09 -1172.3z"/>
    <path class="fil0 str0" d="M24821.46 12971.67c-26.78,27.5 -71.59,31.58 -99.27,1.4 -26.3,-28.67 -18.5,-80.05 10.19,-95.26 -0.34,-13.97 -19.29,-20.86 -43.57,-45.55 -15.38,-15.65 -33.05,-28.58 -50.31,-42.66 -106.53,-86.94 -221.56,-152.58 -352.74,-205.1 -91.57,-36.65 -184.42,-60.98 -289.73,-82.16 -53.09,-10.68 -104.05,-17.08 -161.23,-24.73 -50.59,-6.76 -113.57,-14.31 -171.63,-14.31 0,45.94 8.11,86.06 7.68,131.78l3.93 100.67c0.8,14.91 3.89,18.95 3.89,34.85l193.49 19.57c60.64,8.28 118.92,22.56 176.12,36.94 168.34,42.34 301.81,106.69 428.96,210.23l56.45 48.15c13.19,10.9 14.62,19.01 25.45,28.79 12.41,11.22 16.47,10.63 28.27,25.96 9.12,11.85 13.49,15.9 22.68,27.68 8.7,11.15 15.3,19.65 24.45,29.78 43.29,48 89.02,146.91 113.32,208.21 19.24,48.54 34.46,110.57 42.85,170.22 13.04,92.69 7.51,519.29 7.51,631.68l0 1069.19c0,29.89 -7.87,198.29 3.45,209.61 11.41,11.41 179.6,3.36 209.62,3.46 61.55,0.2 50.46,8.17 50.36,-54.24l-0.01 -321.53c0,-72.92 3.88,-134.53 3.88,-209.2 0,-70.2 -3.88,-135.18 -3.88,-209.19 0,-354.62 4.51,-716.8 0.16,-1069.34 -1.28,-103.62 -38.59,-259.73 -77.73,-348.39 -34.98,-79.23 -67.69,-136.83 -116.09,-205.45 -7.82,-11.07 -14.33,-20.31 -22.71,-31.52 -8.39,-11.22 -15.92,-19.52 -23.81,-29.54z"/>
    <path class="fil0 str0" d="M22865.07 10363.34c-20.31,-18.7 -67.5,-31.12 -44.06,-82.65 16.06,-35.3 40.9,-58.42 9.28,-107.29l-6.3 5.75c-29.86,29.85 -40.08,58.72 -24.53,96.48 -25.98,-12.42 -48.29,-27.49 -53.42,-60.01 -2.7,-17.13 -0.68,-31.21 6.11,-46.36 5.56,-12.4 16.11,-23.76 26.23,-31.58 68.18,-52.62 160.19,41.23 97.07,112.23 -11.65,13.11 -19.95,13.57 -35.02,23.05 -33.59,21.12 -16.55,56.28 4.63,72.2 51.34,38.61 105.85,-34.75 119.63,-75.78 46.17,-137.4 -120.85,-235.4 -222.71,-137.4 -96.14,92.5 -29.19,262.01 123.09,231.36z"/>
    <path class="fil0 str0" d="M22964.91 7845.63c-11.49,-9.94 -16.69,-12.89 -27.16,-22.25 -8.63,-7.71 -16.69,-13.8 -25.58,-20.89 -15.35,-12.27 -37.63,-30.17 -54.77,-37.58 -223.02,-10.62 -204.91,313.02 7.67,270.23 -20.31,-18.71 -67.5,-31.12 -44.06,-82.65 16.06,-35.31 40.9,-58.42 9.28,-107.29l-6.3 5.75c-29.86,29.85 -40.08,58.72 -24.53,96.48 -91.62,-43.8 -51.94,-130.38 -3.32,-147.33 76,-26.49 132.21,62.1 79.31,121.61 -17.75,19.97 -65.77,25.5 -51.61,69.29 17.62,54.52 94.12,51.63 135.3,-36.14 23.21,-49.45 7.57,-65.22 5.77,-109.23z"/>
    <path class="fil0 str0" d="M20368.8 10255.19c24.51,26.27 87.91,61.09 125.52,73.6 -24.83,-64.65 55.16,-82.13 7.77,-155.39l-18.81 20.36c-5.22,7.2 -8.92,13.17 -13.1,22 -11.72,24.76 -8.32,37.05 1.07,59.87 -35.55,-17 -70.54,-49.61 -48.46,-103.65 6.76,-16.54 22.52,-33.95 39.55,-41.49 68.63,-30.38 132.92,44.31 94.66,106.01 -15.86,25.57 -19.88,20.79 -44.78,36.46 -19.87,12.5 -21.23,30.97 -13.38,55.83 10.66,10.5 57.7,22.88 71.4,23.24l13.21 -11.48c4.9,-3.57 8.82,-5.64 13.78,-9.71 8.2,-6.71 15.06,-16.21 21.19,-25.32 89.76,-133.43 -70.74,-275.04 -190.05,-186.12 -41.66,31.05 -56.99,63.07 -59.57,135.79z"/>
    <path class="fil0 str0" d="M22928.45 14989.07c11.1,-23.86 28.09,-34.1 38.06,-69.12 8.74,-30.74 6.19,-67.69 -6.93,-94.87 -39.64,-82.18 -106.14,-69.95 -140.91,-78.71 1.06,16.32 4.15,23.02 8.77,36.38 3.91,11.34 6.91,23.09 10.05,32.54 7.85,23.66 15.9,40.74 25.42,63.68 8.22,19.79 46.16,98.53 65.54,110.1z"/>
    <path class="fil0 str0" d="M20494.32 10328.79l4.52 0c-7.85,-24.86 -6.49,-43.33 13.38,-55.83 24.9,-15.67 28.92,-10.89 44.78,-36.46 38.26,-61.7 -26.03,-136.39 -94.66,-106.01 -17.03,7.54 -32.79,24.95 -39.55,41.49 -22.08,54.04 12.91,86.65 48.46,103.65 -9.39,-22.82 -12.79,-35.11 -1.07,-59.87 4.18,-8.83 7.88,-14.8 13.1,-22l18.81 -20.36c47.39,73.26 -32.6,90.74 -7.77,155.39z"/>
    <path class="fil0 str0" d="M22498.79 10576.33c-32.97,9.22 -9.77,23.82 -25.16,46.62 -8.44,12.52 -31.2,22.3 -49.9,11.72 -33.46,-18.92 -23.55,-83.14 33.17,-68.08 -4.76,8.68 -16.91,19.33 -24.59,26.67 -12.16,11.64 -24.1,16.64 -8.78,34.07 16.14,0.06 59.27,-46.9 68.08,-61.05 -32.3,-60.88 -146.45,-8.29 -101.94,67.55 32.59,55.54 132.56,29.64 109.12,-57.5z"/>
    <path class="fil0 str0" d="M22498.79 8248.12c-32.97,9.23 -9.77,23.82 -25.16,46.63 -8.44,12.52 -31.2,22.29 -49.9,11.72 -33.46,-18.92 -23.55,-83.14 33.17,-68.08 -16.4,29.89 -55.91,35.11 -33.37,60.74 16.14,0.06 59.27,-46.91 68.08,-61.06 -32.3,-60.88 -146.45,-8.28 -101.94,67.56 32.59,55.54 132.56,29.64 109.12,-57.51z"/>
    <path class="fil0 str0" d="M21250.69 11820.94c-30.21,17.01 -8.93,21.52 -23.22,46.7 -7.41,13.06 -29.01,22.25 -49.41,12.9 -36.04,-16.52 -17.8,-86.89 29.62,-69.07l-4.37 12.25c-9.97,12.47 -28.36,22.06 -34.96,39.13l11.35 11.49c12.11,-5.49 59.88,-53.32 64.52,-64.31 -49.93,-64.16 -141.79,6.59 -100.67,69.77 40.38,62.03 140.28,11.19 107.14,-58.86z"/>
    <path class="fil0 str0" d="M23578.89 14149.15c-30.21,17 -8.93,21.51 -23.22,46.69 -7.41,13.06 -29,22.25 -49.41,12.9 -36.04,-16.52 -17.8,-86.88 29.63,-69.07 3.85,14.54 -30.68,28.98 -39.33,51.38l11.34 11.49c12.11,-5.49 59.88,-53.31 64.52,-64.31 -49.93,-64.16 -141.79,6.59 -100.67,69.77 40.38,62.04 140.28,11.19 107.14,-58.85z"/>
    <path class="fil0 str0" d="M21250.69 9492.74c-30.21,17.01 -8.93,21.51 -23.22,46.69 -7.41,13.07 -29.01,22.26 -49.41,12.9 -36.04,-16.52 -17.8,-86.88 29.62,-69.07 0.18,0.66 0.12,1.15 0.06,2.05l-0.59 4.08c-6.49,15.23 -31.05,25.21 -38.8,45.25l11.35 11.5c12.11,-5.49 59.88,-53.32 64.52,-64.32 -49.93,-64.15 -141.79,6.6 -100.67,69.77 40.38,62.04 140.28,11.2 107.14,-58.85z"/>
    <path class="fil0 str0" d="M24922.58 15135.88c-28.53,14.89 -9.93,21.66 -24.62,45.96 -8.04,13.29 -28.66,23.71 -50.23,13.42 -28.74,-13.71 -32.32,-76.77 32.45,-69.82 -6.7,24.62 -38.95,26.22 -40.05,58.27 21,9.78 23.06,-2.71 40.08,-19.67 11.35,-11.32 29.1,-23.64 34.35,-39.39 -57.06,-62.81 -135.29,10.02 -101.93,66.73 35.45,60.28 132.99,32.45 109.95,-55.5z"/>
    <path class="fil0 str0" d="M22594.38 10479.48c-28.53,14.89 -9.93,21.66 -24.62,45.95 -8.04,13.29 -28.66,23.71 -50.23,13.42 -28.74,-13.71 -32.33,-76.76 32.44,-69.81 -6.69,24.61 -38.95,26.21 -40.05,58.26 21,9.78 23.07,-2.7 40.08,-19.67 11.36,-11.32 29.1,-23.64 34.35,-39.38 -57.06,-62.81 -135.28,10.02 -101.92,66.73 35.45,60.27 132.99,32.44 109.95,-55.5z"/>
    <path class="fil0 str0" d="M20266.17 12807.68c-28.52,14.89 -9.92,21.66 -24.61,45.96 -8.04,13.29 -28.66,23.71 -50.23,13.41 -28.74,-13.7 -32.33,-76.76 32.44,-69.81 -6.69,24.61 -38.95,26.21 -40.05,58.26 21,9.78 23.07,-2.7 40.08,-19.67 11.36,-11.32 29.1,-23.64 34.35,-39.38 -57.06,-62.81 -135.29,10.02 -101.93,66.73 35.46,60.27 133,32.44 109.95,-55.5z"/>
    <path class="fil0 str0" d="M22594.38 8151.28c-28.53,14.89 -9.93,21.65 -24.62,45.95 -8.04,13.29 -28.66,23.71 -50.23,13.42 -28.74,-13.71 -32.33,-76.77 32.44,-69.81 -6.69,24.61 -38.95,26.21 -40.05,58.26 21,9.78 23.07,-2.7 40.08,-19.67 11.36,-11.32 29.1,-23.64 34.35,-39.38 -57.06,-62.81 -135.28,10.01 -101.92,66.72 35.45,60.27 132.99,32.45 109.95,-55.49z"/>
    <path class="fil0 str0" d="M23674.48 14052.14c-28.77,18.2 -8.43,23.83 -23.68,49.07 -8.7,14.39 -33.39,20.64 -51.14,10.02 -34.43,-20.62 -18.97,-83.69 35.69,-67.23 -9.53,20.5 -46.02,37.28 -39.53,55.73 15.05,13.82 24.64,-7.51 37.67,-19.71 13.72,-12.84 27.74,-19.94 34.66,-36.18 -40.98,-64.46 -140.22,-2.62 -102.01,65.85 34.46,61.75 140.42,22.62 108.34,-57.55z"/>
    <path class="fil0 str0" d="M21346.28 9395.74c-28.77,18.19 -8.43,23.82 -23.68,49.06 -8.7,14.4 -33.39,20.64 -51.14,10.02 -34.43,-20.61 -18.97,-83.69 35.68,-67.23 -9.53,20.51 -46.02,37.28 -39.52,55.73 15.04,13.83 24.64,-7.51 37.67,-19.7 13.72,-12.85 27.73,-19.94 34.66,-36.18 -40.98,-64.47 -140.23,-2.63 -102.01,65.85 34.46,61.74 140.42,22.62 108.34,-57.55z"/>
    <path class="fil0 str0" d="M21337.58 11707.89l-4.21 -2.79c-0.66,-0.38 -3.7,-2.13 -4.66,-2.63 -3.69,-1.95 -6.89,-3.33 -10.34,-5.03 -10.34,-5.11 -12.83,-7.95 -26.01,-8.6 -65.24,4.94 -83.07,80.07 -37.89,111.3 52.94,36.6 116.37,-14.82 91.81,-76.2 -28.77,18.19 -8.43,23.82 -23.68,49.06 -8.7,14.4 -33.39,20.65 -51.14,10.03 -34.43,-20.62 -18.97,-83.7 35.68,-67.23 -9.53,20.5 -46.02,37.27 -39.52,55.73 10.17,15.42 31.7,-13.58 58.62,-37.55 9.93,-8.85 13.9,-9.37 11.34,-26.09z"/>
    <path class="fil0 str0" d="M18921.54 14208.12l0 -60.55 -10.75 9.77c-11.18,15.43 -2.88,26.4 -13.01,40.89 -8.73,12.48 -31.58,19.73 -50.55,9.21 -33.68,-18.67 -13.16,-84.83 32.25,-67.77 0.18,0.66 0.11,1.74 0.06,2.04l-1.49 6.14c-5.71,10.93 -30.99,25.53 -38.2,43.51l11.96 10.85c11.8,-5.16 59.57,-52.98 64.21,-63.98 -39.28,-50.47 -117.13,-17.9 -109.69,44.21 3.24,27.08 23.12,46.67 48.17,52.23 34.32,7.61 49.58,-11.66 67.04,-26.55z"/>
    <path class="fil0 str0" d="M22260.83 13203.19l-51.36 -107.33c-7.81,-13.12 1.12,-5.1 -12.26,-12.74 -9.69,10.89 -58.64,44.22 -30.47,96.85 28,52.33 77.61,27.6 94.09,23.22z"/>
    <path class="fil0 str0" d="M24821.46 12971.67l-61.46 -71.13c-13.14,-16.06 -13.18,-16.86 -27.62,-22.73 -28.69,15.21 -36.49,66.59 -10.19,95.26 27.68,30.18 72.49,26.1 99.27,-1.4z"/>
    <path class="fil0 str0" d="M23221.55 14569.33l0 -16.94c-10.83,-4.94 -32.71,-28.91 -40.72,-37.78 -15.65,-17.35 -11.06,-43.37 3.65,-54.6 39.4,-30.06 75.43,28.08 92.96,43.17l14.74 -13.45c-5.19,-9.14 -39.87,-45.15 -50.05,-51.99 -25.91,-17.41 -57.38,-10.48 -75.62,8.15 -55.2,56.39 18.78,103.25 38.29,129.3 8.65,-3.25 8.28,-4.26 16.75,-5.86z"/>
    <path class="fil0 str0" d="M20876.59 9918.79c13.15,-5.26 11.89,-6.3 19.29,-15.97 -17.8,-25.87 -77.52,-59.05 -43.66,-95.56 37.01,-39.92 80.61,25.39 97.01,39.52l14.75 -13.46c-5.2,-9.13 -39.87,-45.14 -50.05,-51.98 -25.92,-17.41 -57.38,-10.49 -75.62,8.14 -55.21,56.4 18.78,103.25 38.28,129.31z"/>
    <path class="fil0 str0" d="M22142 10992.56c-7.45,-32.07 -81.73,-57.46 -42.83,-101.07 39.06,-43.79 78.29,27.28 101.17,38.15l10.1 -10.96c-3.99,-14.49 -38.88,-48.54 -53.2,-56.36 -59.22,-32.34 -123.99,40.4 -72.96,96.15 46.83,51.16 40.46,45.69 57.72,34.09z"/>
    <path class="fil0 str0" d="M22142 13320.76c-7.45,-32.07 -81.73,-57.46 -42.83,-101.06 39.06,-43.8 78.29,27.28 101.17,38.14l10.1 -10.96c-7.87,-28.56 -89.96,-102.5 -132.23,-40.41 -31.31,45.96 2.12,77.72 32.88,107.84 18.34,17.96 12.08,19.11 30.91,6.45z"/>
    <path class="fil0 str0" d="M22142 8664.36c-7.45,-32.07 -81.73,-57.46 -42.83,-101.07 39.06,-43.79 78.29,27.28 101.17,38.14l10.1 -10.95c-7.87,-28.57 -89.96,-102.5 -132.23,-40.42 -31.31,45.96 2.12,77.73 32.88,107.85 18.34,17.95 12.08,19.1 30.91,6.45z"/>
   </g>
   <polygon class="fil1 str1" points="4584.09,6697.47 7754.8,6697.47 7754.8,10984.02 4584.09,18611.67 "/>
   <rect class="fil2 str2" x="4584.09" y="2343.27" width="3170.71" height="3373.55"/>
   <polygon class="fil3 str3" points="13032.31,15456.96 16166.95,15456.96 17508.99,18611.67 14330.6,18611.67 "/>
   <polygon class="fil1 str4" points="14899.19,12368.34 18051.41,12368.34 19319.17,15456.96 16166.95,15456.96 "/>
   <polygon class="fil3 str3" points="4584.09,18611.67 7778.94,18611.67 11034.97,10603.63 11777.15,12354.57 14899.19,12368.34 12619.67,6693.77 9502.16,6693.77 "/>
   <path class="fil4" d="M19378.35 18670.97c-217.44,0 -433.81,-40.5 -649.11,-121.51l-44.77 -518.01 51.16 44.77c31.98,29.84 73.55,61.82 124.71,95.93 119.37,78.87 268.6,118.31 447.66,118.31 270.73,0 410.36,-111.92 418.88,-335.75 -6.39,-108.72 -50.09,-196.12 -131.1,-262.2 -81,-66.08 -168.4,-121.51 -262.2,-166.28l-19.18 -12.79c-144.96,-70.34 -280.33,-156.68 -406.1,-259 -132.17,-123.64 -198.25,-280.32 -198.25,-470.05 2.13,-208.91 74.08,-374.65 215.84,-497.22 141.76,-122.58 319.22,-183.86 532.4,-183.86 34.1,0 111.91,6.92 233.42,20.78 121.51,13.86 245.15,42.1 370.92,84.74l0 492.43c-66.08,-66.09 -157.75,-126.84 -274.99,-182.27 -81.01,-36.24 -169.47,-55.42 -265.4,-57.55 -98.06,0 -183.33,29.31 -255.81,87.93 -72.48,58.62 -108.72,132.7 -108.72,222.23 0,130.04 138.57,255.81 415.69,377.32 98.06,46.9 191.32,99.12 279.79,156.68 88.47,57.56 160.41,133.23 215.84,227.03 68.21,117.24 102.32,246.21 102.32,386.91 0,36.24 -6.4,109.25 -19.19,219.03 -12.79,109.79 -85.26,220.1 -217.43,330.95 -164.14,130.04 -349.61,197.19 -556.38,201.45z"/>
   <path id="_1" class="fil4" d="M21655.03 18670.97c-387.97,0 -699.74,-120.97 -935.29,-362.93 -235.56,-241.95 -353.34,-552.65 -353.34,-932.09 0,-362.4 113.52,-665.1 340.55,-908.12 227.02,-243.01 528.13,-364.52 903.31,-364.52 61.83,0 170.01,9.06 324.56,27.18 154.55,18.12 303.24,46.36 446.06,84.73l0 473.25 -79.94 -57.56c-53.29,-36.24 -131.1,-73.55 -233.42,-111.92 -102.32,-38.37 -227.03,-57.55 -374.12,-57.55 -255.8,0 -462.05,86.33 -618.73,259 -156.68,172.67 -235.02,391.17 -235.02,655.51 0,277.12 74.61,502.55 223.83,676.29 149.22,173.73 352.8,260.6 610.74,260.6 138.56,0 280.32,-37.3 425.28,-111.91l0 -511.62c-27.72,-153.48 -90.6,-252.61 -188.66,-297.37l661.9 0 0 1099.97c-206.78,72.48 -373.05,120.44 -498.82,143.89 -125.78,23.45 -265.4,35.17 -418.89,35.17z"/>
   <path id="_2" class="fil4" d="M25114.83 18619.81l-850.56 0c130.03,-66.08 195.05,-201.45 195.05,-406.09l0 -703.47 -1052.01 0 0 703.47c0,204.64 65.02,340.01 195.06,406.09l-850.56 0c130.03,-66.08 195.05,-201.45 195.05,-406.09l0 -1653.16c0,-204.64 -65.02,-340.01 -195.05,-406.09l850.56 0c-130.04,66.08 -195.06,201.45 -195.06,406.09l0 588.36 1052.01 0 0 -588.36c0,-204.64 -65.02,-340.01 -195.05,-406.09l850.56 0c-130.04,66.08 -195.06,201.45 -195.06,406.09l0 1653.16c0,204.64 65.02,340.01 195.06,406.09z"/>
  </g>
 </g>
</svg>
